<svg width="139" height="25" viewBox="0 0 139 25" fill="none" xmlns="http://www.w3.org/2000/svg">
<path d="M10.3669 8.79665H15.9897V3.16357C15.9897 1.85091 14.9251 0.796646 13.6227 0.796646H2.36692C1.0646 0.796646 0 1.86125 0 3.16357V14.4194C0 15.7321 1.0646 16.7863 2.36692 16.7863H7.98966V11.1532C7.98966 9.84058 9.05426 8.78632 10.3566 8.78632L10.3669 8.79665Z" fill="#35CCA3"/>
<path d="M21.6227 8.79665H16V14.4297C16 15.7424 14.9354 16.7966 13.6331 16.7966H8.01034V22.4297C8.01034 23.7424 9.07494 24.7967 10.3773 24.7967H21.6331C22.9354 24.7967 24 23.732 24 22.4297V11.1739C24 9.86125 22.9354 8.80698 21.6331 8.80698L21.6227 8.79665Z" fill="#35CCA3"/>
<path d="M16 14.4297V8.79665H10.3773C9.07494 8.79665 8.01034 9.86125 8.01034 11.1636V16.7966H13.6331C14.9354 16.7966 16 15.732 16 14.4297Z" fill="#1E293B"/>
<path d="M37.14 19.9367C36.18 19.9367 35.3067 19.7367 34.52 19.3367C33.7467 18.9367 33.1333 18.3567 32.68 17.5967C32.2267 16.8367 32 15.9167 32 14.8367V14.5567C32 13.4767 32.2267 12.5567 32.68 11.7967C33.1333 11.0367 33.7467 10.4567 34.52 10.0567C35.3067 9.65665 36.18 9.45665 37.14 9.45665C38.0867 9.45665 38.9 9.62332 39.58 9.95666C40.26 10.29 40.8067 10.75 41.22 11.3367C41.6467 11.91 41.9267 12.5633 42.06 13.2967L39.62 13.8167C39.5667 13.4167 39.4467 13.0567 39.26 12.7367C39.0733 12.4167 38.8067 12.1633 38.46 11.9767C38.1267 11.79 37.7067 11.6967 37.2 11.6967C36.6933 11.6967 36.2333 11.81 35.82 12.0367C35.42 12.25 35.1 12.5767 34.86 13.0167C34.6333 13.4433 34.52 13.97 34.52 14.5967V14.7967C34.52 15.4233 34.6333 15.9567 34.86 16.3967C35.1 16.8233 35.42 17.15 35.82 17.3767C36.2333 17.59 36.6933 17.6967 37.2 17.6967C37.96 17.6967 38.5333 17.5033 38.92 17.1167C39.32 16.7167 39.5733 16.1967 39.68 15.5567L42.12 16.1367C41.9467 16.8433 41.6467 17.49 41.22 18.0767C40.8067 18.65 40.26 19.1033 39.58 19.4367C38.9 19.77 38.0867 19.9367 37.14 19.9367Z" fill="#1E293B"/>
<path d="M47.9188 19.9367C46.9321 19.9367 46.0454 19.7367 45.2587 19.3367C44.4721 18.9367 43.8521 18.3567 43.3988 17.5967C42.9454 16.8367 42.7188 15.9233 42.7188 14.8567V14.5367C42.7188 13.47 42.9454 12.5567 43.3988 11.7967C43.8521 11.0367 44.4721 10.4567 45.2587 10.0567C46.0454 9.65665 46.9321 9.45665 47.9188 9.45665C48.9054 9.45665 49.7921 9.65665 50.5788 10.0567C51.3654 10.4567 51.9854 11.0367 52.4387 11.7967C52.8921 12.5567 53.1188 13.47 53.1188 14.5367V14.8567C53.1188 15.9233 52.8921 16.8367 52.4387 17.5967C51.9854 18.3567 51.3654 18.9367 50.5788 19.3367C49.7921 19.7367 48.9054 19.9367 47.9188 19.9367ZM47.9188 17.6967C48.6921 17.6967 49.3321 17.45 49.8388 16.9567C50.3454 16.45 50.5988 15.73 50.5988 14.7967V14.5967C50.5988 13.6633 50.3454 12.95 49.8388 12.4567C49.3454 11.95 48.7054 11.6967 47.9188 11.6967C47.1454 11.6967 46.5054 11.95 45.9987 12.4567C45.4921 12.95 45.2388 13.6633 45.2388 14.5967V14.7967C45.2388 15.73 45.4921 16.45 45.9987 16.9567C46.5054 17.45 47.1454 17.6967 47.9188 17.6967Z" fill="#1E293B"/>
<path d="M54.4448 19.6567V9.73665H56.9248V11.0367H57.2848C57.4448 10.69 57.7448 10.3633 58.1848 10.0567C58.6248 9.73666 59.2915 9.57666 60.1848 9.57666C60.9582 9.57666 61.6315 9.75666 62.2048 10.1167C62.7915 10.4633 63.2448 10.95 63.5648 11.5767C63.8848 12.19 64.0448 12.91 64.0448 13.7367V19.6567H61.5248V13.9367C61.5248 13.19 61.3382 12.63 60.9648 12.2567C60.6048 11.8833 60.0848 11.6967 59.4048 11.6967C58.6315 11.6967 58.0315 11.9567 57.6048 12.4767C57.1782 12.9833 56.9648 13.6967 56.9648 14.6167V19.6567H54.4448Z" fill="#1E293B"/>
<path d="M65.7691 19.6567V9.73665H68.2491V11.0367H68.6091C68.7691 10.69 69.0691 10.3633 69.5091 10.0567C69.9491 9.73666 70.6157 9.57666 71.5091 9.57666C72.2824 9.57666 72.9557 9.75666 73.5291 10.1167C74.1157 10.4633 74.5691 10.95 74.8891 11.5767C75.2091 12.19 75.3691 12.91 75.3691 13.7367V19.6567H72.8491V13.9367C72.8491 13.19 72.6624 12.63 72.2891 12.2567C71.9291 11.8833 71.4091 11.6967 70.7291 11.6967C69.9557 11.6967 69.3557 11.9567 68.9291 12.4767C68.5024 12.9833 68.2891 13.6967 68.2891 14.6167V19.6567H65.7691Z" fill="#1E293B"/>
<path d="M81.6133 19.9367C80.6266 19.9367 79.7533 19.73 78.9933 19.3167C78.2466 18.89 77.6599 18.2967 77.2333 17.5367C76.8199 16.7633 76.6133 15.8567 76.6133 14.8167V14.5767C76.6133 13.5367 76.8199 12.6367 77.2333 11.8767C77.6466 11.1033 78.2266 10.51 78.9733 10.0967C79.7199 9.66999 80.5866 9.45665 81.5733 9.45665C82.5466 9.45665 83.3933 9.67665 84.1133 10.1167C84.8333 10.5433 85.3933 11.1433 85.7933 11.9167C86.1933 12.6767 86.3933 13.5633 86.3933 14.5767V15.4367H79.1733C79.1999 16.1167 79.4533 16.67 79.9333 17.0967C80.4133 17.5233 80.9999 17.7367 81.6933 17.7367C82.3999 17.7367 82.9199 17.5833 83.2533 17.2767C83.5866 16.97 83.8399 16.63 84.0133 16.2567L86.0733 17.3367C85.8866 17.6833 85.6133 18.0633 85.2533 18.4767C84.9066 18.8767 84.4399 19.2233 83.8533 19.5167C83.2666 19.7967 82.5199 19.9367 81.6133 19.9367ZM79.1933 13.5567H83.8333C83.7799 12.9833 83.5466 12.5233 83.1333 12.1767C82.7333 11.83 82.2066 11.6567 81.5533 11.6567C80.8733 11.6567 80.3333 11.83 79.9333 12.1767C79.5333 12.5233 79.2866 12.9833 79.1933 13.5567Z" fill="#1E293B"/>
<path d="M92.2962 19.9367C91.3362 19.9367 90.4629 19.7367 89.6763 19.3367C88.9029 18.9367 88.2896 18.3567 87.8363 17.5967C87.3829 16.8367 87.1562 15.9167 87.1562 14.8367V14.5567C87.1562 13.4767 87.3829 12.5567 87.8363 11.7967C88.2896 11.0367 88.9029 10.4567 89.6763 10.0567C90.4629 9.65665 91.3362 9.45665 92.2962 9.45665C93.2429 9.45665 94.0563 9.62332 94.7363 9.95666C95.4163 10.29 95.9629 10.75 96.3763 11.3367C96.8029 11.91 97.0829 12.5633 97.2162 13.2967L94.7762 13.8167C94.7229 13.4167 94.6029 13.0567 94.4162 12.7367C94.2296 12.4167 93.9629 12.1633 93.6162 11.9767C93.2829 11.79 92.8629 11.6967 92.3563 11.6967C91.8496 11.6967 91.3896 11.81 90.9762 12.0367C90.5762 12.25 90.2563 12.5767 90.0163 13.0167C89.7896 13.4433 89.6763 13.97 89.6763 14.5967V14.7967C89.6763 15.4233 89.7896 15.9567 90.0163 16.3967C90.2563 16.8233 90.5762 17.15 90.9762 17.3767C91.3896 17.59 91.8496 17.6967 92.3563 17.6967C93.1163 17.6967 93.6896 17.5033 94.0763 17.1167C94.4763 16.7167 94.7296 16.1967 94.8363 15.5567L97.2763 16.1367C97.1029 16.8433 96.8029 17.49 96.3763 18.0767C95.9629 18.65 95.4163 19.1033 94.7363 19.4367C94.0563 19.77 93.2429 19.9367 92.2962 19.9367Z" fill="#1E293B"/>
<path d="M101.823 19.6567C101.17 19.6567 100.636 19.4567 100.223 19.0567C99.823 18.6433 99.623 18.0967 99.623 17.4167V11.8167H97.143V9.73665H99.623V6.65665H102.143V9.73665H104.863V11.8167H102.143V16.9767C102.143 17.3767 102.33 17.5767 102.703 17.5767H104.623V19.6567H101.823Z" fill="#1E293B"/>
<path d="M106.504 19.6567V5.65665H107.704V11.6367H107.944C108.104 11.3167 108.324 11.0167 108.604 10.7367C108.897 10.4433 109.271 10.21 109.724 10.0367C110.191 9.84999 110.771 9.75665 111.464 9.75665C112.171 9.75665 112.817 9.90332 113.404 10.1967C113.991 10.49 114.457 10.93 114.804 11.5167C115.164 12.1033 115.344 12.8433 115.344 13.7367V19.6567H114.144V13.8167C114.144 12.75 113.877 11.99 113.344 11.5367C112.811 11.07 112.097 10.8367 111.204 10.8367C110.204 10.8367 109.371 11.1633 108.704 11.8167C108.037 12.47 107.704 13.4633 107.704 14.7967V19.6567H106.504Z" fill="#1E293B"/>
<path d="M121.334 19.8567C120.641 19.8567 119.994 19.71 119.394 19.4167C118.807 19.1233 118.334 18.6833 117.974 18.0967C117.627 17.4967 117.454 16.75 117.454 15.8567V9.93665H118.654V15.7767C118.654 16.83 118.921 17.5967 119.454 18.0767C119.987 18.5433 120.701 18.7767 121.594 18.7767C122.594 18.7767 123.427 18.45 124.094 17.7967C124.761 17.13 125.094 16.13 125.094 14.7967V9.93665H126.294V19.6567H125.134V17.8567H124.894C124.654 18.3767 124.261 18.8433 123.714 19.2567C123.167 19.6567 122.374 19.8567 121.334 19.8567Z" fill="#1E293B"/>
<path d="M134.02 19.9367C132.954 19.9367 132.12 19.73 131.52 19.3167C130.934 18.89 130.5 18.41 130.22 17.8767H129.98V19.6567H128.82V5.65665H130.02V11.6367H130.26C130.434 11.3033 130.674 10.99 130.98 10.6967C131.3 10.39 131.707 10.1433 132.2 9.95666C132.707 9.75666 133.314 9.65666 134.02 9.65666C134.9 9.65666 135.694 9.86332 136.4 10.2767C137.107 10.6767 137.667 11.2567 138.08 12.0167C138.494 12.7633 138.7 13.65 138.7 14.6767V14.9167C138.7 15.9433 138.487 16.8367 138.06 17.5967C137.647 18.3433 137.087 18.9233 136.38 19.3367C135.674 19.7367 134.887 19.9367 134.02 19.9367ZM133.74 18.8567C134.847 18.8567 135.74 18.5033 136.42 17.7967C137.114 17.09 137.46 16.1167 137.46 14.8767V14.7167C137.46 13.4767 137.114 12.5033 136.42 11.7967C135.74 11.09 134.847 10.7367 133.74 10.7367C132.647 10.7367 131.754 11.09 131.06 11.7967C130.367 12.5033 130.02 13.4767 130.02 14.7167V14.8767C130.02 16.1167 130.367 17.09 131.06 17.7967C131.754 18.5033 132.647 18.8567 133.74 18.8567Z" fill="#1E293B"/>
</svg>
