<svg width="134" height="24" viewBox="0 0 134 24" fill="none" xmlns="http://www.w3.org/2000/svg">
<path d="M20.7134 4.90263C16.8371 1.02637 10.8317 0.589614 6.47498 3.59234L10.1547 7.27205C12.4368 6.18015 15.2539 6.57324 17.1429 8.46223C19.5341 10.8535 19.5341 14.7407 17.1429 17.1319C14.7516 19.5232 10.8644 19.5232 8.47316 17.1319C6.58417 15.2429 6.19108 12.4258 7.28298 10.1438L3.60328 6.46404C0.600545 10.8207 1.03731 16.8262 4.91356 20.7024C8.78981 24.5787 16.3567 25.0701 20.7243 20.7024C25.0919 16.3348 25.0919 9.25932 20.7243 4.89171H20.7134V4.90263Z" fill="#35CCA3"/>
<path d="M6.47497 3.59235L2.88262 -7.62939e-06L-9.53674e-07 2.88261L3.59236 6.47497C3.97452 5.9181 4.41128 5.39398 4.90264 4.90263C5.39399 4.41127 5.91811 3.97451 6.47497 3.59235Z" fill="#35CCA3"/>
<path d="M8.47316 17.1429C10.8644 19.5341 14.7516 19.5341 17.1429 17.1429C19.5341 14.7516 19.5341 10.8644 17.1429 8.47315C15.2539 6.58416 12.4368 6.19107 10.1547 7.28297L6.47498 3.60327C5.91811 3.98543 5.39399 4.42219 4.90264 4.91355C4.41128 5.40491 3.97452 5.92901 3.59236 6.48588L7.27207 10.1656C6.18016 12.4477 6.57325 15.2648 8.46224 17.1538H8.47316V17.1429Z" fill="#1E293B"/>
<path d="M32 19V9.08H34.48V10.16H34.84C35.0133 9.82667 35.3 9.54 35.7 9.3C36.1 9.04667 36.6267 8.92 37.28 8.92C37.9867 8.92 38.5533 9.06 38.98 9.34C39.4067 9.60667 39.7333 9.96 39.96 10.4H40.32C40.5467 9.97334 40.8667 9.62 41.28 9.34C41.6933 9.06 42.28 8.92 43.04 8.92C43.6533 8.92 44.2067 9.05334 44.7 9.32C45.2067 9.57333 45.6067 9.96667 45.9 10.5C46.2067 11.02 46.36 11.68 46.36 12.48V19H43.84V12.66C43.84 12.1133 43.7 11.7067 43.42 11.44C43.14 11.16 42.7467 11.02 42.24 11.02C41.6667 11.02 41.22 11.2067 40.9 11.58C40.5933 11.94 40.44 12.46 40.44 13.14V19H37.92V12.66C37.92 12.1133 37.78 11.7067 37.5 11.44C37.22 11.16 36.8267 11.02 36.32 11.02C35.7467 11.02 35.3 11.2067 34.98 11.58C34.6733 11.94 34.52 12.46 34.52 13.14V19H32Z" fill="#1E293B"/>
<path d="M52.7903 19.28C51.8036 19.28 50.917 19.08 50.1303 18.68C49.3436 18.28 48.7236 17.7 48.2703 16.94C47.817 16.18 47.5903 15.2667 47.5903 14.2V13.88C47.5903 12.8133 47.817 11.9 48.2703 11.14C48.7236 10.38 49.3436 9.8 50.1303 9.4C50.917 9 51.8036 8.8 52.7903 8.8C53.777 8.8 54.6636 9 55.4503 9.4C56.237 9.8 56.857 10.38 57.3103 11.14C57.7636 11.9 57.9903 12.8133 57.9903 13.88V14.2C57.9903 15.2667 57.7636 16.18 57.3103 16.94C56.857 17.7 56.237 18.28 55.4503 18.68C54.6636 19.08 53.777 19.28 52.7903 19.28ZM52.7903 17.04C53.5636 17.04 54.2036 16.7933 54.7103 16.3C55.217 15.7933 55.4703 15.0733 55.4703 14.14V13.94C55.4703 13.0067 55.217 12.2933 54.7103 11.8C54.217 11.2933 53.577 11.04 52.7903 11.04C52.017 11.04 51.377 11.2933 50.8703 11.8C50.3636 12.2933 50.1103 13.0067 50.1103 13.94V14.14C50.1103 15.0733 50.3636 15.7933 50.8703 16.3C51.377 16.7933 52.017 17.04 52.7903 17.04Z" fill="#1E293B"/>
<path d="M59.3164 19V9.08H61.7964V10.38H62.1564C62.3164 10.0333 62.6164 9.70667 63.0564 9.4C63.4964 9.08 64.1631 8.92 65.0564 8.92C65.8297 8.92 66.5031 9.1 67.0764 9.46C67.6631 9.80667 68.1164 10.2933 68.4364 10.92C68.7564 11.5333 68.9164 12.2533 68.9164 13.08V19H66.3964V13.28C66.3964 12.5333 66.2097 11.9733 65.8364 11.6C65.4764 11.2267 64.9564 11.04 64.2764 11.04C63.5031 11.04 62.9031 11.3 62.4764 11.82C62.0497 12.3267 61.8364 13.04 61.8364 13.96V19H59.3164Z" fill="#1E293B"/>
<path d="M70.6406 19V9.08H73.1606V19H70.6406ZM71.9006 7.92C71.4473 7.92 71.0606 7.77333 70.7406 7.48C70.434 7.18667 70.2806 6.8 70.2806 6.32C70.2806 5.84 70.434 5.45334 70.7406 5.16C71.0606 4.86667 71.4473 4.72 71.9006 4.72C72.3673 4.72 72.754 4.86667 73.0606 5.16C73.3673 5.45334 73.5206 5.84 73.5206 6.32C73.5206 6.8 73.3673 7.18667 73.0606 7.48C72.754 7.77333 72.3673 7.92 71.9006 7.92Z" fill="#1E293B"/>
<path d="M78.7531 19C78.0998 19 77.5665 18.8 77.1531 18.4C76.7531 17.9867 76.5531 17.44 76.5531 16.76V11.16H74.0731V9.08H76.5531V6H79.0731V9.08H81.7931V11.16H79.0731V16.32C79.0731 16.72 79.2598 16.92 79.6331 16.92H81.5531V19H78.7531Z" fill="#1E293B"/>
<path d="M87.4427 19.28C86.456 19.28 85.5693 19.08 84.7827 18.68C83.996 18.28 83.376 17.7 82.9227 16.94C82.4693 16.18 82.2427 15.2667 82.2427 14.2V13.88C82.2427 12.8133 82.4693 11.9 82.9227 11.14C83.376 10.38 83.996 9.8 84.7827 9.4C85.5693 9 86.456 8.8 87.4427 8.8C88.4293 8.8 89.316 9 90.1027 9.4C90.8893 9.8 91.5093 10.38 91.9627 11.14C92.416 11.9 92.6427 12.8133 92.6427 13.88V14.2C92.6427 15.2667 92.416 16.18 91.9627 16.94C91.5093 17.7 90.8893 18.28 90.1027 18.68C89.316 19.08 88.4293 19.28 87.4427 19.28ZM87.4427 17.04C88.216 17.04 88.856 16.7933 89.3627 16.3C89.8693 15.7933 90.1227 15.0733 90.1227 14.14V13.94C90.1227 13.0067 89.8693 12.2933 89.3627 11.8C88.8693 11.2933 88.2293 11.04 87.4427 11.04C86.6693 11.04 86.0293 11.2933 85.5227 11.8C85.016 12.2933 84.7627 13.0067 84.7627 13.94V14.14C84.7627 15.0733 85.016 15.7933 85.5227 16.3C86.0293 16.7933 86.6693 17.04 87.4427 17.04Z" fill="#1E293B"/>
<path d="M93.9688 19V9.08H96.4488V10.2H96.8088C96.9554 9.8 97.1954 9.50667 97.5287 9.32C97.8754 9.13333 98.2754 9.04 98.7288 9.04H99.9287V11.28H98.6888C98.0488 11.28 97.5221 11.4533 97.1087 11.8C96.6954 12.1333 96.4887 12.6533 96.4887 13.36V19H93.9688Z" fill="#1E293B"/>
<path d="M101.258 19V5H102.458V10.98H102.698C102.858 10.66 103.078 10.36 103.358 10.08C103.652 9.78667 104.025 9.55334 104.478 9.38C104.945 9.19333 105.525 9.1 106.218 9.1C106.925 9.1 107.572 9.24667 108.158 9.54C108.745 9.83334 109.212 10.2733 109.558 10.86C109.918 11.4467 110.098 12.1867 110.098 13.08V19H108.898V13.16C108.898 12.0933 108.632 11.3333 108.098 10.88C107.565 10.4133 106.852 10.18 105.958 10.18C104.958 10.18 104.125 10.5067 103.458 11.16C102.792 11.8133 102.458 12.8067 102.458 14.14V19H101.258Z" fill="#1E293B"/>
<path d="M116.088 19.2C115.395 19.2 114.748 19.0533 114.148 18.76C113.562 18.4667 113.088 18.0267 112.728 17.44C112.382 16.84 112.208 16.0933 112.208 15.2V9.28H113.408V15.12C113.408 16.1733 113.675 16.94 114.208 17.42C114.742 17.8867 115.455 18.12 116.348 18.12C117.348 18.12 118.182 17.7933 118.848 17.14C119.515 16.4733 119.848 15.4733 119.848 14.14V9.28H121.048V19H119.888V17.2H119.648C119.408 17.72 119.015 18.1867 118.468 18.6C117.922 19 117.128 19.2 116.088 19.2Z" fill="#1E293B"/>
<path d="M128.775 19.28C127.708 19.28 126.875 19.0733 126.275 18.66C125.688 18.2333 125.255 17.7533 124.975 17.22H124.735V19H123.575V5H124.775V10.98H125.015C125.188 10.6467 125.428 10.3333 125.735 10.04C126.055 9.73334 126.462 9.48667 126.955 9.3C127.462 9.1 128.068 9 128.775 9C129.655 9 130.448 9.20667 131.155 9.62C131.862 10.02 132.422 10.6 132.835 11.36C133.248 12.1067 133.455 12.9933 133.455 14.02V14.26C133.455 15.2867 133.242 16.18 132.815 16.94C132.402 17.6867 131.842 18.2667 131.135 18.68C130.428 19.08 129.642 19.28 128.775 19.28ZM128.495 18.2C129.602 18.2 130.495 17.8467 131.175 17.14C131.868 16.4333 132.215 15.46 132.215 14.22V14.06C132.215 12.82 131.868 11.8467 131.175 11.14C130.495 10.4333 129.602 10.08 128.495 10.08C127.402 10.08 126.508 10.4333 125.815 11.14C125.122 11.8467 124.775 12.82 124.775 14.06V14.22C124.775 15.46 125.122 16.4333 125.815 17.14C126.508 17.8467 127.402 18.2 128.495 18.2Z" fill="#1E293B"/>
</svg>
