<svg xmlns="http://www.w3.org/2000/svg" width="104" height="22" viewBox="0 0 104 22" fill="none">
  <path d="M4.2931 5.17247C4.2931 5.07937 4.2931 4.99661 4.31379 4.91385H1.72758C0.77586 4.91385 0 5.68971 0 6.64143V15.9414C0 16.8932 0.77586 17.669 1.72758 17.669H4.31379C4.31379 17.5863 4.2931 17.4932 4.2931 17.4104V5.17247Z" fill="#35CCA3"/>
  <path d="M11.0793 3.65177C11.0793 3.39315 11.1207 3.13454 11.1828 2.88626H6.56898C5.40002 2.88626 4.43795 3.76557 4.30347 4.9035H6.12415C7.07588 4.9035 7.85174 5.67936 7.85174 6.63108V15.9311C7.85174 16.8828 7.07588 17.6587 6.12415 17.6587H4.30347C4.43795 18.7966 5.40002 19.6759 6.56898 19.6759H11.1828C11.1207 19.438 11.0793 19.1794 11.0793 18.9104V3.64141V3.65177Z" fill="#35CCA3"/>
  <path d="M7.86218 15.9414V6.64143C7.86218 5.68971 7.08632 4.91385 6.13459 4.91385H4.3139C4.3139 4.99661 4.29321 5.08971 4.29321 5.17247V17.4104C4.29321 17.5035 4.29321 17.5863 4.3139 17.669H6.13459C7.08632 17.669 7.86218 16.8932 7.86218 15.9414Z" fill="#1E293B"/>
  <path d="M21.1553 0.807016H13.9242C12.6208 0.807016 11.5242 1.68634 11.1829 2.88634H12.3725C13.6346 2.88634 14.6484 3.91047 14.6484 5.1622V17.4001C14.6484 18.6622 13.6242 19.676 12.3725 19.676H11.1829C11.5139 20.876 12.6104 21.7553 13.9242 21.7553H21.1553C22.7277 21.7553 24.0001 20.4829 24.0001 18.9105V3.64149C24.0001 2.06908 22.7277 0.796661 21.1553 0.796661V0.807016Z" fill="#35CCA3"/>
  <path d="M14.6483 17.4103V5.17238C14.6483 3.91031 13.6242 2.89651 12.3724 2.89651H11.1828C11.1207 3.13445 11.0793 3.39308 11.0793 3.66205V18.931C11.0793 19.1896 11.1207 19.4483 11.1828 19.6965H12.3724C13.6345 19.6965 14.6483 18.6724 14.6483 17.4207V17.4103Z" fill="#1E293B"/>
  <path d="M36.68 17.6566C36.0267 17.6566 35.4933 17.4566 35.08 17.0566C34.68 16.6433 34.48 16.0966 34.48 15.4166V9.81665H32V7.73665H34.48V4.65665H37V7.73665H39.72V9.81665H37V14.9766C37 15.3766 37.1867 15.5766 37.56 15.5766H39.48V17.6566H36.68Z" fill="#1E293B"/>
  <path d="M44.0811 17.9366C43.3744 17.9366 42.7411 17.8166 42.1811 17.5766C41.6211 17.3233 41.1744 16.9633 40.8411 16.4966C40.5211 16.0166 40.3611 15.4366 40.3611 14.7566C40.3611 14.0766 40.5211 13.51 40.8411 13.0566C41.1744 12.59 41.6278 12.2433 42.2011 12.0166C42.7878 11.7766 43.4544 11.6566 44.2011 11.6566H46.9211V11.0966C46.9211 10.63 46.7744 10.25 46.4811 9.95665C46.1878 9.64998 45.7211 9.49665 45.0811 9.49665C44.4544 9.49665 43.9878 9.64331 43.6811 9.93665C43.3744 10.2166 43.1744 10.5833 43.0811 11.0366L40.7611 10.2566C40.9211 9.74998 41.1744 9.28998 41.5211 8.87665C41.8811 8.44998 42.3544 8.10998 42.9411 7.85665C43.5411 7.58998 44.2678 7.45665 45.1211 7.45665C46.4278 7.45665 47.4611 7.78331 48.2211 8.43665C48.9811 9.08998 49.3611 10.0366 49.3611 11.2766V14.9766C49.3611 15.3766 49.5478 15.5766 49.9211 15.5766H50.7211V17.6566H49.0411C48.5478 17.6566 48.1411 17.5366 47.8211 17.2966C47.5011 17.0566 47.3411 16.7366 47.3411 16.3366V16.3166H46.9611C46.9078 16.4766 46.7878 16.69 46.6011 16.9566C46.4144 17.21 46.1211 17.4366 45.7211 17.6366C45.3211 17.8366 44.7744 17.9366 44.0811 17.9366ZM44.5211 15.8966C45.2278 15.8966 45.8011 15.7033 46.2411 15.3166C46.6944 14.9166 46.9211 14.39 46.9211 13.7366V13.5366H44.3811C43.9144 13.5366 43.5478 13.6366 43.2811 13.8366C43.0144 14.0366 42.8811 14.3166 42.8811 14.6766C42.8811 15.0366 43.0211 15.33 43.3011 15.5566C43.5811 15.7833 43.9878 15.8966 44.5211 15.8966Z" fill="#1E293B"/>
  <path d="M55.6055 17.9366C54.3121 17.9366 53.2521 17.6566 52.4255 17.0966C51.5988 16.5366 51.0988 15.7366 50.9255 14.6966L53.2455 14.0966C53.3388 14.5633 53.4921 14.93 53.7055 15.1966C53.9321 15.4633 54.2055 15.6566 54.5255 15.7766C54.8588 15.8833 55.2188 15.9366 55.6055 15.9366C56.1921 15.9366 56.6255 15.8366 56.9055 15.6366C57.1855 15.4233 57.3255 15.1633 57.3255 14.8566C57.3255 14.55 57.1921 14.3166 56.9255 14.1566C56.6588 13.9833 56.2321 13.8433 55.6455 13.7366L55.0855 13.6366C54.3921 13.5033 53.7588 13.3233 53.1855 13.0966C52.6121 12.8566 52.1521 12.53 51.8055 12.1166C51.4588 11.7033 51.2855 11.17 51.2855 10.5166C51.2855 9.52998 51.6455 8.77665 52.3655 8.25665C53.0855 7.72331 54.0321 7.45665 55.2055 7.45665C56.3121 7.45665 57.2321 7.70331 57.9655 8.19665C58.6988 8.68998 59.1788 9.33665 59.4055 10.1366L57.0655 10.8566C56.9588 10.35 56.7388 9.98998 56.4055 9.77665C56.0855 9.56331 55.6855 9.45665 55.2055 9.45665C54.7255 9.45665 54.3588 9.54331 54.1055 9.71665C53.8521 9.87665 53.7255 10.1033 53.7255 10.3966C53.7255 10.7166 53.8588 10.9566 54.1255 11.1166C54.3921 11.2633 54.7521 11.3766 55.2055 11.4566L55.7655 11.5566C56.5121 11.69 57.1855 11.87 57.7855 12.0966C58.3988 12.31 58.8788 12.6233 59.2255 13.0366C59.5855 13.4366 59.7655 13.9833 59.7655 14.6766C59.7655 15.7166 59.3855 16.5233 58.6255 17.0966C57.8788 17.6566 56.8721 17.9366 55.6055 17.9366Z" fill="#1E293B"/>
  <path d="M60.9737 17.6566V3.65665H63.4937V11.3966H63.8538L67.1338 7.73665H70.4137L65.8338 12.5366L70.5737 17.6566H67.3338L63.8538 13.7166H63.4937V17.6566H60.9737Z" fill="#1E293B"/>
  <path d="M71.6228 17.6566V3.65665H72.8228V9.63665H73.0628C73.2228 9.31665 73.4428 9.01665 73.7228 8.73665C74.0161 8.44331 74.3895 8.20998 74.8428 8.03665C75.3095 7.84998 75.8895 7.75665 76.5828 7.75665C77.2895 7.75665 77.9361 7.90331 78.5228 8.19665C79.1095 8.48998 79.5761 8.92998 79.9228 9.51665C80.2828 10.1033 80.4628 10.8433 80.4628 11.7366V17.6566H79.2628V11.8166C79.2628 10.75 78.9961 9.98998 78.4628 9.53665C77.9295 9.06998 77.2161 8.83665 76.3228 8.83665C75.3228 8.83665 74.4895 9.16331 73.8228 9.81665C73.1561 10.47 72.8228 11.4633 72.8228 12.7966V17.6566H71.6228Z" fill="#1E293B"/>
  <path d="M86.4527 17.8566C85.7593 17.8566 85.1127 17.71 84.5127 17.4166C83.926 17.1233 83.4527 16.6833 83.0927 16.0966C82.746 15.4966 82.5727 14.75 82.5727 13.8566V7.93665H83.7727V13.7766C83.7727 14.83 84.0393 15.5966 84.5727 16.0766C85.106 16.5433 85.8193 16.7766 86.7127 16.7766C87.7127 16.7766 88.546 16.45 89.2127 15.7966C89.8793 15.13 90.2127 14.13 90.2127 12.7966V7.93665H91.4127V17.6566H90.2527V15.8566H90.0127C89.7727 16.3766 89.3793 16.8433 88.8327 17.2566C88.286 17.6566 87.4927 17.8566 86.4527 17.8566Z" fill="#1E293B"/>
  <path d="M99.1392 17.9366C98.0726 17.9366 97.2392 17.73 96.6392 17.3166C96.0526 16.89 95.6192 16.41 95.3392 15.8766H95.0992V17.6566H93.9392V3.65665H95.1392V9.63665H95.3792C95.5526 9.30331 95.7926 8.98998 96.0992 8.69665C96.4192 8.38998 96.8259 8.14331 97.3192 7.95665C97.8259 7.75665 98.4326 7.65665 99.1392 7.65665C100.019 7.65665 100.813 7.86331 101.519 8.27665C102.226 8.67665 102.786 9.25665 103.199 10.0166C103.613 10.7633 103.819 11.65 103.819 12.6766V12.9166C103.819 13.9433 103.606 14.8366 103.179 15.5966C102.766 16.3433 102.206 16.9233 101.499 17.3366C100.793 17.7366 100.006 17.9366 99.1392 17.9366ZM98.8592 16.8566C99.9659 16.8566 100.859 16.5033 101.539 15.7966C102.233 15.09 102.579 14.1166 102.579 12.8766V12.7166C102.579 11.4766 102.233 10.5033 101.539 9.79665C100.859 9.08998 99.9659 8.73665 98.8592 8.73665C97.7659 8.73665 96.8726 9.08998 96.1792 9.79665C95.4859 10.5033 95.1392 11.4766 95.1392 12.7166V12.8766C95.1392 14.1166 95.4859 15.09 96.1792 15.7966C96.8726 16.5033 97.7659 16.8566 98.8592 16.8566Z" fill="#1E293B"/>
</svg>