<svg xmlns="http://www.w3.org/2000/svg" width="104" height="25" viewBox="0 0 104 25" fill="none">
  <path d="M3.60166 12.7967C3.60166 8.16625 7.35845 4.4143 11.9949 4.4143V12.7967H3.59131H3.60166Z" fill="#35CCA3"/>
  <path d="M2.06986 12.7967H3.60155C3.60155 17.4272 7.35834 21.1791 11.9948 21.1791C16.6313 21.1791 20.3881 17.4272 20.3881 12.7967C20.3881 8.16618 16.6313 4.41423 11.9948 4.41423V2.86385C11.9948 1.72689 12.9159 0.796661 14.0647 0.796661H20.4502C22.4166 0.796661 24 2.3884 24 4.35222V21.2411C24 23.2049 22.4062 24.7967 20.4502 24.7967H3.54981C1.58344 24.7967 0 23.2049 0 21.2411V18.3367V18.068V14.8535C0 13.7166 0.921087 12.7863 2.06986 12.7863V12.7967Z" fill="#35CCA3"/>
  <path d="M20.3881 12.7967C20.3881 17.4272 16.6313 21.1792 11.9948 21.1792C7.35836 21.1792 3.60156 17.4272 3.60156 12.7967H12.0052V4.4143C16.6417 4.4143 20.3985 8.16625 20.3985 12.7967H20.3881Z" fill="#1E293B"/>
  <path d="M32 19.6567L36.1 12.5967L32.04 5.65666H35.04L37.82 10.7167H38.18L40.96 5.65666H43.96L39.9 12.5967L44 19.6567H41L38.18 14.4767H37.82L35 19.6567H32Z" fill="#1E293B"/>
  <path d="M44.7511 19.6567V5.65666H49.6511L52.0711 17.8567H52.4311L54.8511 5.65666H59.7511V19.6567H57.1911V7.59666H56.8311L54.4311 19.6567H50.0711L47.6711 7.59666H47.3111V19.6567H44.7511Z" fill="#1E293B"/>
  <path d="M61.3878 19.6567V5.65666H64.0278V17.2567H70.4278V19.6567H61.3878Z" fill="#1E293B"/>
  <path d="M71.6677 19.6567V5.65666H72.8677V11.6367H73.1077C73.2677 11.3167 73.4877 11.0167 73.7677 10.7367C74.061 10.4433 74.4343 10.21 74.8877 10.0367C75.3543 9.85 75.9343 9.75666 76.6277 9.75666C77.3343 9.75666 77.981 9.90333 78.5677 10.1967C79.1543 10.49 79.621 10.93 79.9677 11.5167C80.3277 12.1033 80.5077 12.8433 80.5077 13.7367V19.6567H79.3077V13.8167C79.3077 12.75 79.041 11.99 78.5077 11.5367C77.9743 11.07 77.261 10.8367 76.3677 10.8367C75.3677 10.8367 74.5343 11.1633 73.8677 11.8167C73.201 12.47 72.8677 13.4633 72.8677 14.7967V19.6567H71.6677Z" fill="#1E293B"/>
  <path d="M86.4975 19.8567C85.8042 19.8567 85.1575 19.71 84.5575 19.4167C83.9708 19.1233 83.4975 18.6833 83.1375 18.0967C82.7908 17.4967 82.6175 16.75 82.6175 15.8567V9.93666H83.8175V15.7767C83.8175 16.83 84.0842 17.5967 84.6175 18.0767C85.1508 18.5433 85.8642 18.7767 86.7575 18.7767C87.7575 18.7767 88.5908 18.45 89.2575 17.7967C89.9242 17.13 90.2575 16.13 90.2575 14.7967V9.93666H91.4575V19.6567H90.2975V17.8567H90.0575C89.8175 18.3767 89.4242 18.8433 88.8775 19.2567C88.3308 19.6567 87.5375 19.8567 86.4975 19.8567Z" fill="#1E293B"/>
  <path d="M99.1841 19.9367C98.1174 19.9367 97.2841 19.73 96.6841 19.3167C96.0974 18.89 95.6641 18.41 95.3841 17.8767H95.1441V19.6567H93.9841V5.65666H95.1841V11.6367H95.4241C95.5974 11.3033 95.8374 10.99 96.1441 10.6967C96.4641 10.39 96.8707 10.1433 97.3641 9.95666C97.8707 9.75666 98.4774 9.65666 99.1841 9.65666C100.064 9.65666 100.857 9.86333 101.564 10.2767C102.271 10.6767 102.831 11.2567 103.244 12.0167C103.657 12.7633 103.864 13.65 103.864 14.6767V14.9167C103.864 15.9433 103.651 16.8367 103.224 17.5967C102.811 18.3433 102.251 18.9233 101.544 19.3367C100.837 19.7367 100.051 19.9367 99.1841 19.9367ZM98.9041 18.8567C100.011 18.8567 100.904 18.5033 101.584 17.7967C102.277 17.09 102.624 16.1167 102.624 14.8767V14.7167C102.624 13.4767 102.277 12.5033 101.584 11.7967C100.904 11.09 100.011 10.7367 98.9041 10.7367C97.8107 10.7367 96.9174 11.09 96.2241 11.7967C95.5307 12.5033 95.1841 13.4767 95.1841 14.7167V14.8767C95.1841 16.1167 95.5307 17.09 96.2241 17.7967C96.9174 18.5033 97.8107 18.8567 98.9041 18.8567Z" fill="#1E293B"/>
</svg>